<svg xmlns="http://www.w3.org/2000/svg" viewBox="0 0 512 512" width="512" height="512">
  <defs>
    <linearGradient id="bg" x1="0%" y1="0%" x2="100%" y2="100%">
      <stop offset="0%" stop-color="#1A7634"/>
      <stop offset="100%" stop-color="#2EC156"/>
    </linearGradient>
    <linearGradient id="heartGrad" x1="50%" y1="0%" x2="50%" y2="100%">
      <stop offset="0%" stop-color="#FFFFFF"/>
      <stop offset="100%" stop-color="#D6F8DF"/>
    </linearGradient>
    <linearGradient id="handGrad" x1="0%" y1="0%" x2="100%" y2="100%">
      <stop offset="0%" stop-color="#FFFFFF" stop-opacity="0.35"/>
      <stop offset="100%" stop-color="#FFFFFF" stop-opacity="0.18"/>
    </linearGradient>
  </defs>
  <rect width="512" height="512" rx="108" ry="108" fill="url(#bg)"/>
  <path d="M58 330 C48 290 55 240 75 210 C98 170 125 162 145 175 C162 188 165 212 160 238 C155 262 144 280 140 300 C135 330 132 348 138 366 C146 390 164 400 190 403 L215 403 C202 416 172 428 142 422 C102 412 72 385 58 330Z" fill="url(#handGrad)"/>
  <path d="M454 330 C464 290 457 240 437 210 C414 170 387 162 367 175 C350 188 347 212 352 238 C357 262 368 280 372 300 C377 330 380 348 374 366 C366 390 348 400 322 403 L297 403 C310 416 340 428 370 422 C410 412 440 385 454 330Z" fill="url(#handGrad)"/>
  <path d="M138 370 C150 415 195 445 256 448 C317 445 362 415 374 370 C365 405 325 435 256 437 C187 435 147 405 138 370Z" fill="white" fill-opacity="0.18"/>
  <path d="M256 280 C256 280 232 218 192 218 C148 218 126 260 126 288 C126 344 256 405 256 405 C256 405 386 344 386 288 C386 260 364 218 320 218 C280 218 256 280 256 280Z" fill="url(#heartGrad)" opacity="0.92"/>
  <path d="M256 292 C256 292 242 252 218 252 C194 252 180 274 180 290 C180 322 256 362 256 362 C256 362 332 322 332 290 C332 274 318 252 294 252 C270 252 256 292 256 292Z" fill="white" opacity="0.15"/>
  <g fill="white">
    <circle cx="170" cy="132" r="20" opacity="0.45"/>
    <path d="M148 160 C148 148 170 142 170 142 C170 142 192 148 192 160 L192 182 C192 188 148 188 148 182Z" opacity="0.45"/>
    <circle cx="256" cy="120" r="23" opacity="0.55"/>
    <path d="M230 150 C230 136 256 130 256 130 C256 130 282 136 282 150 L282 175 C282 182 230 182 230 175Z" opacity="0.55"/>
    <circle cx="342" cy="132" r="20" opacity="0.45"/>
    <path d="M320 160 C320 148 342 142 342 142 C342 142 364 148 364 160 L364 182 C364 188 320 188 320 182Z" opacity="0.45"/>
  </g>
  <g fill="#1A7634" opacity="0.3" transform="translate(222, 295) scale(0.85)">
    <rect x="0" y="0" width="6" height="40" rx="2"/>
    <rect x="18" y="12" width="6" height="28" rx="2"/>
    <path d="M3 16 C3 8 15 6 21 16" stroke="#1A7634" stroke-width="6" fill="none" stroke-linecap="round"/>
    <rect x="36" y="12" width="6" height="36" rx="2"/>
    <circle cx="52" cy="22" r="12" fill="none" stroke="#1A7634" stroke-width="6"/>
  </g>
</svg>
